<svg xmlns="http://www.w3.org/2000/svg" viewBox="0 0 24 24">
  <path d="M8 2L2 8L5.7636719 11.763672L7.1777344 10.347656L4.828125 8L8 4.828125L10.349609 7.1777344L11.763672 5.7636719L8 2 z M 18.414062 2C18.158188 2 17.902031 2.0974687 17.707031 2.2929688L16 4L20 8L21.707031 6.2929688C22.098031 5.9019687 22.098031 5.2689063 21.707031 4.8789062L19.121094 2.2929688C18.925594 2.0974687 18.669937 2 18.414062 2 z M 14.5 5.5L3 17L3 21L7 21L18.5 9.5L14.5 5.5 z M 18.236328 12.236328L16.822266 13.650391L19.171875 16L16 19.171875L13.652344 16.822266L12.236328 18.236328L16 22L22 16L18.236328 12.236328 z" fill="#FFFFFF" />
</svg>