<svg xmlns="http://www.w3.org/2000/svg" viewBox="0 0 24 24">
  <path d="M8 3C5.243 3 3 5.243 3 8L3 16C3 18.757 5.243 21 8 21L16 21C18.757 21 21 18.757 21 16L21 8C21 5.243 18.757 3 16 3L8 3 z M 8 5L16 5C17.654 5 19 6.346 19 8L19 16C19 17.654 17.654 19 16 19L8 19C6.346 19 5 17.654 5 16L5 8C5 6.346 6.346 5 8 5 z M 17 6 A 1 1 0 0 0 16 7 A 1 1 0 0 0 17 8 A 1 1 0 0 0 18 7 A 1 1 0 0 0 17 6 z M 12 7C9.243 7 7 9.243 7 12C7 14.757 9.243 17 12 17C14.757 17 17 14.757 17 12C17 9.243 14.757 7 12 7 z M 12 9C13.654 9 15 10.346 15 12C15 13.654 13.654 15 12 15C10.346 15 9 13.654 9 12C9 10.346 10.346 9 12 9 z" fill="#FFFFFF" />
</svg>