<svg xmlns="http://www.w3.org/2000/svg" viewBox="0 0 24 24">
  <path d="M22 2C10.367188 2 9.089844 8.023438 9 10.1875C8.433594 10.976563 7.90625 11.753906 7.46875 12.53125C7.378906 12.691406 7.304688 12.84375 7.21875 13L4 13L4 15C2.894531 15 2 15.894531 2 17L2 20C2 21.105469 2.894531 22 4 22L11 22C12.105469 22 13 21.105469 13 20L13 17C13 15.894531 12.105469 15 11 15L11 13L8.8125 13C9.605469 11.625 10.59375 10.222656 11.8125 8.90625C13.046875 7.699219 14.871094 6.117188 17 5C15.574219 6.3125 11.5 9.976563 10.34375 12C12.546875 12.457031 16.207031 11.042969 18 9C17.582031 8.953125 15.578125 8.496094 15 8C16.109375 8.089844 18.265625 8.050781 19 8C20.042969 7.125 21.375 4.328125 22 2Z" fill="#FFFFFF" />
</svg>